<?xml version="1.0" encoding="UTF-8"?><svg id="Layer_1" xmlns="http://www.w3.org/2000/svg" viewBox="0 0 186.64 96.6"><defs><style>.cls-1{stroke-width:.87px;}.cls-1,.cls-2{fill:none;stroke:#5c5b5d;stroke-miterlimit:10;}.cls-3{fill:#59585c;font-family:Whisper-Regular, Whisper;font-size:44.47px;}.cls-2{stroke-width:.62px;}</style></defs><path class="cls-1" d="M151.89,52.01s-31.3,.56-47.8-4.97S55.71,29.59,47.27,28.3c-8.44-1.29-35.33-6.96-35.33-6.96"/><path class="cls-2" d="M85.1,27.74s-2.83,2.01-4.69,2.53-5.53,1.42-6.38,1.83-3.67,1.57-3.67,1.57"/><path class="cls-2" d="M123.31,40.28s-2.83,2.01-4.69,2.53-5.53,1.42-6.38,1.83-3.67,1.57-3.67,1.57"/><ellipse class="cls-1" cx="163.33" cy="49.44" rx="1.89" ry="2" transform="translate(-7.17 56.5) rotate(-19.21)"/><ellipse class="cls-1" cx="131.37" cy="31.9" rx="1.89" ry="2" transform="translate(-3.18 45) rotate(-19.21)"/><ellipse class="cls-1" cx="95.14" cy="21.02" rx="1.89" ry="2" transform="translate(-1.62 32.48) rotate(-19.21)"/><path class="cls-1" d="M154.5,57.57c-1.54-1.82-2.01-4.32-1.25-6.43-.1-.1-.19-.2-.28-.31-2.31-2.74-2.11-6.72,.44-8.87,1.28-1.08,2.97-1.54,4.68-1.28,.33-1.05,.94-1.96,1.77-2.66,2.55-2.15,6.51-1.68,8.82,1.06,.65,.77,1.12,1.67,1.38,2.63,1.31,.36,2.51,1.13,3.41,2.19,2.31,2.74,2.11,6.72-.44,8.88-.16,.13-.33,.26-.52,.38,.82,2.43,.15,5.05-1.7,6.62-2.37,2-5.97,1.74-8.33-.55-2.55,1.47-5.92,.79-7.98-1.65Zm-.22-6.65l-.11,.27c-.79,1.88-.39,4.16,1,5.81,1.86,2.2,4.93,2.76,7.14,1.3l.31-.2,.25,.27c2.04,2.18,5.28,2.51,7.39,.73,1.66-1.4,2.19-3.8,1.33-5.98l-.14-.35,.33-.19c.27-.16,.51-.32,.71-.49,2.19-1.84,2.34-5.28,.33-7.65-.84-.99-1.97-1.69-3.2-1.97l-.27-.06-.06-.27c-.21-.92-.65-1.79-1.27-2.52-2-2.37-5.41-2.8-7.6-.96-.79,.67-1.34,1.57-1.59,2.6l-.1,.41-.41-.09c-1.58-.34-3.17,.03-4.34,1.02-2.19,1.84-2.34,5.28-.34,7.65,.14,.16,.28,.31,.42,.45l.21,.21Z"/><path class="cls-1" d="M90.73,32.08c-2.16-1.02-3.63-3.08-3.82-5.33-.13-.05-.26-.11-.38-.17-3.24-1.53-4.72-5.23-3.3-8.25,.71-1.52,2.06-2.64,3.72-3.12-.13-1.09,.03-2.17,.5-3.16,1.42-3.02,5.22-4.24,8.46-2.71,.91,.43,1.72,1.05,2.35,1.81,1.34-.22,2.75-.02,4.01,.57,3.24,1.53,4.73,5.23,3.3,8.25-.09,.19-.19,.37-.31,.56,1.76,1.87,2.25,4.53,1.21,6.73-1.32,2.81-4.7,4.07-7.8,2.98-1.71,2.4-5.05,3.19-7.94,1.83Zm-2.98-5.95v.3c.08,2.03,1.39,3.94,3.35,4.86,2.61,1.23,5.63,.45,7.03-1.8l.19-.31,.34,.14c2.76,1.13,5.85,.07,7.02-2.41,.92-1.96,.41-4.37-1.29-5.99l-.27-.26,.22-.31c.18-.26,.33-.5,.44-.74,1.22-2.59-.08-5.77-2.89-7.09-1.17-.55-2.49-.71-3.73-.46l-.27,.06-.17-.22c-.57-.75-1.33-1.36-2.2-1.76-2.81-1.32-6.09-.29-7.3,2.3-.44,.94-.57,1.98-.37,3.03l.08,.42-.41,.09c-1.58,.35-2.87,1.35-3.52,2.74-1.22,2.59,.08,5.77,2.89,7.09,.19,.09,.38,.17,.57,.23l.28,.1Z"/><path class="cls-1" d="M119.81,32.52c-.17-2.38,.92-4.67,2.79-5.93-.02-.14-.03-.28-.04-.42-.25-3.58,2.25-6.68,5.59-6.91,1.67-.12,3.31,.51,4.54,1.73,.88-.65,1.91-1.03,3-1.11,3.33-.23,6.25,2.48,6.5,6.06,.07,1-.08,2.01-.43,2.94,.85,1.06,1.36,2.39,1.46,3.78,.25,3.58-2.25,6.68-5.59,6.91-.21,.01-.42,.02-.65,0-.77,2.45-2.85,4.17-5.28,4.34-3.09,.22-5.84-2.11-6.41-5.35-2.93-.32-5.25-2.85-5.47-6.04Zm3.74-5.5l-.25,.15c-1.74,1.05-2.77,3.13-2.62,5.29,.2,2.87,2.35,5.14,5.01,5.26l.37,.02,.04,.36c.36,2.97,2.79,5.14,5.53,4.95,2.17-.15,4.01-1.78,4.6-4.05l.09-.36,.37,.04c.32,.03,.6,.04,.86,.02,2.85-.2,5-2.88,4.78-5.98-.09-1.29-.6-2.53-1.42-3.47l-.18-.21,.11-.25c.37-.87,.53-1.83,.46-2.78-.22-3.1-2.72-5.45-5.57-5.25-1.03,.07-2.01,.47-2.82,1.16l-.32,.27-.28-.32c-1.08-1.21-2.57-1.84-4.11-1.74-2.85,.2-5,2.88-4.78,5.98,.01,.21,.04,.41,.08,.62l.05,.29Z"/><text class="cls-3" transform="translate(10.57 55.2) rotate(11.99)"><tspan x="0" y="0">Meelespea</tspan></text></svg>